<?xml version="1.0" encoding="utf-8"?>
<!-- Generator: Adobe Illustrator 24.3.0, SVG Export Plug-In . SVG Version: 6.00 Build 0)  -->
<svg version="1.1" id="Layer_1" xmlns="http://www.w3.org/2000/svg" xmlns:xlink="http://www.w3.org/1999/xlink" x="0px" y="0px"
	 viewBox="0 0 342 65" style="enable-background:new 0 0 342 65;" xml:space="preserve">
<style type="text/css">
	.st0{fill:#2F4858;}
</style>
<g>
	<path class="st0" d="M8,9.7h11.7c4.5,0,8.2,0.9,11.2,2.7s5.1,4.3,6.6,7.5s2.2,6.8,2.2,10.9c0,4.1-0.7,7.8-2.2,11s-3.7,5.7-6.6,7.5
		c-2.9,1.8-6.7,2.7-11.2,2.7H8V9.7z M15.9,16.9v28h3c2.8,0,5-0.6,6.8-1.8c1.8-1.2,3.1-2.9,4-5c0.9-2.1,1.3-4.5,1.3-7.2
		c0-2.7-0.4-5.1-1.3-7.2c-0.9-2.1-2.2-3.8-4-5c-1.8-1.2-4.1-1.8-6.8-1.8L15.9,16.9L15.9,16.9z"/>
	<path class="st0" d="M58.5,52.8c-2.8,0-5.3-0.6-7.5-1.8c-2.2-1.2-3.9-2.8-5.1-4.9c-1.2-2.1-1.9-4.5-1.9-7.1s0.6-5.1,1.9-7.2
		s3-3.8,5.1-5s4.7-1.8,7.5-1.8c2.8,0,5.3,0.6,7.5,1.8c2.2,1.2,3.8,2.9,5.1,5c1.2,2.1,1.8,4.5,1.8,7.2s-0.6,5-1.8,7.1
		S68.2,49.8,66,51C63.9,52.2,61.4,52.8,58.5,52.8z M58.5,46c1.3,0,2.5-0.3,3.5-0.9c1-0.6,1.8-1.5,2.3-2.5c0.5-1.1,0.8-2.3,0.8-3.7
		s-0.3-2.6-0.8-3.7c-0.5-1.1-1.3-2-2.3-2.6c-1-0.6-2.2-0.9-3.5-0.9S56,32,55,32.7c-1,0.6-1.8,1.5-2.3,2.6c-0.6,1.1-0.8,2.3-0.8,3.7
		c0,1.4,0.3,2.6,0.8,3.7c0.6,1.1,1.3,1.9,2.3,2.5S57.2,46,58.5,46z"/>
	<path class="st0" d="M91.9,46.3c1.4,0,2.5-0.2,3.4-0.7c0.9-0.5,1.4-0.8,1.7-1.1l3.8,5.6c-0.3,0.2-0.8,0.6-1.7,1
		c-0.8,0.4-1.8,0.8-3.1,1.1c-1.2,0.3-2.7,0.5-4.3,0.5c-2.8,0-5.3-0.6-7.5-1.7c-2.2-1.1-3.9-2.7-5.2-4.8c-1.3-2.1-1.9-4.6-1.9-7.5
		c0-2.9,0.6-5.4,1.9-7.5c1.3-2.1,3-3.7,5.2-4.8s4.7-1.7,7.5-1.7c1.6,0,3,0.2,4.2,0.5c1.2,0.3,2.3,0.7,3.1,1.2
		c0.8,0.4,1.4,0.8,1.7,1.1l-3.9,5.6c-0.2-0.2-0.4-0.4-0.9-0.7s-1-0.6-1.7-0.8c-0.7-0.3-1.5-0.4-2.5-0.4c-1.2,0-2.3,0.3-3.3,0.9
		c-1.1,0.6-1.9,1.5-2.6,2.6c-0.7,1.1-1,2.4-1,3.9s0.3,2.8,1,3.9s1.5,2,2.6,2.6C89.6,46,90.7,46.3,91.9,46.3z"/>
	<path class="st0" d="M113.1,38.3c0,2.3,0.5,4.2,1.4,5.6c0.9,1.4,2.5,2.1,4.6,2.1c2.1,0,3.6-0.7,4.6-2.1c0.9-1.4,1.4-3.3,1.4-5.6
		V25.7h8v13.5c0,2.7-0.5,5.1-1.6,7.1c-1.1,2-2.7,3.6-4.8,4.7s-4.6,1.7-7.6,1.7c-3,0-5.5-0.6-7.6-1.7s-3.7-2.7-4.8-4.7
		c-1.1-2-1.6-4.4-1.6-7.1V25.7h8V38.3z"/>
	<path class="st0" d="M138.8,25.7h24.9l-14.1,20.5h13.2V52h-25.9l14.1-20.5h-12.1V25.7z"/>
	<path class="st0" d="M180.6,52.8c-2.8,0-5.3-0.6-7.5-1.8c-2.2-1.2-3.9-2.8-5.1-4.9c-1.2-2.1-1.9-4.5-1.9-7.1s0.6-5.1,1.9-7.2
		s2.9-3.8,5.1-5s4.7-1.8,7.5-1.8c2.8,0,5.3,0.6,7.5,1.8s3.8,2.9,5.1,5c1.2,2.1,1.8,4.5,1.8,7.2s-0.6,5-1.8,7.1s-2.9,3.7-5.1,4.9
		C185.9,52.2,183.4,52.8,180.6,52.8z M180.6,46c1.4,0,2.5-0.3,3.5-0.9c1-0.6,1.8-1.5,2.3-2.5c0.5-1.1,0.8-2.3,0.8-3.7
		s-0.3-2.6-0.8-3.7c-0.5-1.1-1.3-2-2.3-2.6c-1-0.6-2.2-0.9-3.5-0.9s-2.5,0.3-3.5,0.9c-1,0.6-1.8,1.5-2.3,2.6
		c-0.6,1.1-0.8,2.3-0.8,3.7c0,1.4,0.3,2.6,0.8,3.7c0.6,1.1,1.3,1.9,2.3,2.5S179.2,46,180.6,46z"/>
	<path class="st0" d="M217.2,24.9c1.8,0,3.6,0.4,5.2,1.1c1.7,0.7,3.1,1.9,4.2,3.5s1.6,3.7,1.6,6.3V52h-8.2V37.2
		c0-2.2-0.5-3.8-1.5-4.8c-1-1-2.3-1.6-4-1.6c-1.1,0-2.1,0.3-3.1,0.9s-1.8,1.4-2.4,2.4s-0.9,2.2-0.9,3.5V52h-8.1V25.7h8.1v4.2
		c0.2-0.7,0.8-1.5,1.6-2.2s1.9-1.4,3.2-1.9C214.3,25.2,215.7,24.9,217.2,24.9z"/>
	<path class="st0" d="M240.7,40.7c0.1,1.2,0.4,2.3,1,3.2c0.6,0.9,1.4,1.7,2.5,2.2s2.4,0.8,4,0.8c1.4,0,2.6-0.2,3.7-0.5
		s1.9-0.8,2.7-1.3c0.7-0.5,1.3-1,1.7-1.5l3.4,5c-0.6,0.8-1.4,1.4-2.4,2.1c-1,0.6-2.2,1.1-3.8,1.5c-1.5,0.4-3.4,0.6-5.7,0.6
		c-2.9,0-5.4-0.6-7.6-1.7s-3.9-2.8-5.1-4.9c-1.2-2.1-1.8-4.7-1.8-7.6c0-2.6,0.5-4.9,1.6-6.9s2.7-3.7,4.8-4.9s4.6-1.8,7.5-1.8
		c2.8,0,5.1,0.5,7.2,1.6s3.6,2.6,4.7,4.6s1.7,4.5,1.7,7.4c0,0.2,0,0.5,0,1c0,0.5,0,0.9-0.1,1L240.7,40.7L240.7,40.7z M252.9,35.6
		c0-0.7-0.2-1.4-0.6-2.2c-0.4-0.8-1-1.5-1.8-2c-0.8-0.6-1.9-0.8-3.3-0.8s-2.5,0.3-3.4,0.8c-0.9,0.5-1.6,1.2-2,2s-0.7,1.5-0.8,2.3
		H252.9z"/>
	<path class="st0" d="M272.3,52.8c-1.4,0-2.7-0.5-3.7-1.5s-1.5-2.2-1.5-3.7c0-1.5,0.5-2.7,1.5-3.8s2.2-1.5,3.7-1.5
		c1.5,0,2.7,0.5,3.7,1.5c1,1,1.5,2.3,1.5,3.8c0,1.4-0.5,2.7-1.5,3.7S273.8,52.8,272.3,52.8z"/>
	<path class="st0" d="M306.3,52v-4.6c-0.2,0.5-0.7,1.1-1.5,2c-0.8,0.8-1.9,1.6-3.2,2.3s-2.9,1-4.7,1c-2.5,0-4.8-0.6-6.7-1.8
		c-1.9-1.2-3.5-2.9-4.6-5c-1.1-2.1-1.6-4.5-1.6-7.1s0.5-5,1.6-7.1c1.1-2.1,2.6-3.8,4.6-5c1.9-1.2,4.2-1.8,6.7-1.8
		c1.8,0,3.3,0.3,4.6,0.9s2.3,1.3,3.1,2c0.8,0.8,1.3,1.5,1.5,2.1v-4.3h8.1V52C314.3,52,306.3,52,306.3,52z M292,38.9
		c0,1.5,0.3,2.8,1,3.9s1.5,2,2.6,2.6s2.3,0.9,3.6,0.9c1.4,0,2.5-0.3,3.6-1c1-0.6,1.9-1.5,2.5-2.6c0.6-1.1,0.9-2.4,0.9-3.9
		s-0.3-2.7-0.9-3.9c-0.6-1.1-1.4-2-2.5-2.6c-1-0.6-2.2-1-3.6-1c-1.3,0-2.5,0.3-3.6,1s-2,1.5-2.6,2.6C292.3,36.1,292,37.4,292,38.9z"
		/>
	<path class="st0" d="M325.6,18.9c-1.4,0-2.5-0.5-3.4-1.4s-1.4-2.1-1.4-3.4s0.5-2.4,1.4-3.4s2.1-1.4,3.4-1.4c0.9,0,1.7,0.2,2.4,0.7
		c0.7,0.4,1.3,1,1.8,1.8s0.7,1.5,0.7,2.4c0,1.3-0.5,2.4-1.4,3.4S326.9,18.9,325.6,18.9z M321.4,52V25.7h8.1V52
		C329.5,52,321.4,52,321.4,52z"/>
</g>
</svg>
