<svg width="131" height="38" viewBox="0 0 131 38" fill="none" xmlns="http://www.w3.org/2000/svg">
<path d="M1.608 27.5V10.772H6.48C9.264 10.772 11.416 11.508 12.936 12.98C14.456 14.452 15.216 16.548 15.216 19.268C15.216 21.924 14.464 23.964 12.96 25.388C11.456 26.796 9.288 27.5 6.456 27.5H1.608ZM4.704 24.644H6.144C7.408 24.644 8.48 24.484 9.36 24.164C10.24 23.844 10.912 23.284 11.376 22.484C11.856 21.684 12.096 20.572 12.096 19.148C12.096 17.772 11.864 16.684 11.4 15.884C10.952 15.068 10.304 14.492 9.456 14.156C8.624 13.804 7.616 13.628 6.432 13.628H4.704V24.644ZM17.6359 27.5V10.772H20.6359V18.356L20.1319 18.428C20.3399 17.708 20.6439 17.132 21.0439 16.7C21.4599 16.252 21.9319 15.932 22.4599 15.74C23.0039 15.532 23.5479 15.428 24.0919 15.428C25.4359 15.428 26.4839 15.812 27.2359 16.58C28.0039 17.332 28.3879 18.396 28.3879 19.772V27.5H25.3879V20.876C25.3879 19.884 25.2119 19.164 24.8599 18.716C24.5079 18.252 23.9559 18.02 23.2039 18.02C22.3559 18.02 21.7159 18.324 21.2839 18.932C20.8519 19.54 20.6359 20.508 20.6359 21.836V27.5H17.6359ZM33.6353 27.5L29.9873 15.668H33.1553L35.1473 22.94L37.2833 15.668H39.8513L41.9873 22.892L44.0033 15.668H47.1953L43.5233 27.5H40.8593L38.5793 19.892L36.3473 27.5H33.6353ZM56.6964 27.5L56.4564 25.724V20.036C56.4564 19.332 56.2324 18.812 55.7844 18.476C55.3524 18.124 54.7604 17.948 54.0084 17.948C53.3844 17.948 52.7444 18.076 52.0884 18.332C51.4484 18.572 50.8804 18.916 50.3844 19.364L48.8724 17.324C49.7044 16.652 50.5524 16.172 51.4164 15.884C52.2964 15.58 53.2404 15.428 54.2484 15.428C55.8804 15.428 57.1524 15.836 58.0644 16.652C58.9764 17.468 59.4324 18.596 59.4324 20.036V27.5H56.6964ZM53.1204 27.74C52.2564 27.74 51.4804 27.58 50.7924 27.26C50.1204 26.94 49.5844 26.484 49.1844 25.892C48.8004 25.3 48.6084 24.62 48.6084 23.852C48.6084 23.164 48.7444 22.58 49.0164 22.1C49.3044 21.604 49.6804 21.228 50.1444 20.972C50.5444 20.732 50.9844 20.564 51.4644 20.468C51.9604 20.372 52.4884 20.324 53.0484 20.324H56.7204V22.532H53.4804C53.2244 22.532 52.9684 22.556 52.7124 22.604C52.4724 22.636 52.2644 22.724 52.0884 22.868C51.9284 22.98 51.8084 23.124 51.7284 23.3C51.6484 23.46 51.6084 23.644 51.6084 23.852C51.6084 24.3 51.7844 24.66 52.1364 24.932C52.4884 25.204 52.9604 25.34 53.5524 25.34C54.0804 25.34 54.5604 25.228 54.9924 25.004C55.4404 24.764 55.7924 24.444 56.0484 24.044C56.3204 23.628 56.4564 23.156 56.4564 22.628L57.2484 24.212C57.0404 25.044 56.7204 25.724 56.2884 26.252C55.8724 26.764 55.3924 27.14 54.8484 27.38C54.3044 27.62 53.7284 27.74 53.1204 27.74ZM62.214 27.5V15.668H65.214V18.356L64.734 18.404C64.942 17.684 65.246 17.108 65.646 16.676C66.046 16.244 66.51 15.932 67.038 15.74C67.566 15.532 68.11 15.428 68.67 15.428C70.014 15.428 71.062 15.812 71.814 16.58C72.582 17.332 72.966 18.396 72.966 19.772V27.5H69.966V20.876C69.966 19.884 69.79 19.164 69.438 18.716C69.086 18.252 68.534 18.02 67.782 18.02C67.206 18.02 66.726 18.156 66.342 18.428C65.974 18.684 65.694 19.092 65.502 19.652C65.31 20.212 65.214 20.94 65.214 21.836V27.5H62.214ZM75.7369 27.5V15.668H78.7129V27.5H75.7369ZM75.6409 13.844V10.772H78.8329V13.844H75.6409Z" fill="black"/>
<path d="M113.187 19.8043L126.646 14.421V23.3714C125.846 22.8594 124.895 22.5625 123.875 22.5625C121.033 22.5625 118.729 24.8664 118.729 27.7083C118.729 30.5503 121.033 32.8542 123.875 32.8542C126.717 32.8542 129.021 30.5503 129.021 27.7083V12.5816C129.021 10.7721 129.021 9.25453 128.894 8.04542C128.875 7.87454 128.854 7.70465 128.831 7.54613C128.708 6.72009 128.491 5.94949 128.073 5.306C127.864 4.98425 127.604 4.69429 127.281 4.44504C127.22 4.39832 127.157 4.35302 127.092 4.30921L127.079 4.30047C125.959 3.55523 124.7 3.60852 123.404 3.93898C122.149 4.25856 120.595 4.90937 118.688 5.70743L115.372 7.09516C114.479 7.46918 113.722 7.78607 113.127 8.11428C112.495 8.46348 111.95 8.87535 111.542 9.4891C111.133 10.1029 110.964 10.7643 110.886 11.4824C110.812 12.1573 110.812 12.9781 110.812 13.9469V26.5381C110.013 26.0261 109.062 25.7292 108.042 25.7292C105.2 25.7292 102.896 28.0331 102.896 30.875C102.896 33.7169 105.2 36.0208 108.042 36.0208C110.884 36.0208 113.187 33.7169 113.187 30.875V19.8043Z" fill="#FF7D76"/>
<path d="M105.271 3.16666C105.271 2.51082 104.739 1.97916 104.083 1.97916C103.428 1.97916 102.896 2.51082 102.896 3.16666V12.2881C102.096 11.776 101.145 11.4792 100.125 11.4792C97.283 11.4792 94.9792 13.783 94.9792 16.625C94.9792 19.4669 97.283 21.7708 100.125 21.7708C102.967 21.7708 105.271 19.4669 105.271 16.625V7.92378C106.377 8.72278 107.693 9.10416 108.833 9.10416C109.489 9.10416 110.021 8.57249 110.021 7.91666C110.021 7.26082 109.489 6.72916 108.833 6.72916C108.114 6.72916 107.197 6.45032 106.477 5.85574C105.791 5.28929 105.271 4.42992 105.271 3.16666Z" fill="#A3A3F5"/>
</svg>
